<mxfile host="app.diagrams.net" modified="2022-05-25T08:24:30.212Z" agent="5.0 (Macintosh; Intel Mac OS X 10_15_7) AppleWebKit/537.36 (KHTML, like Gecko) Chrome/101.0.4951.64 Safari/537.36" etag="OKRlM7QJR6gg8u2bmiMt" version="18.0.7" type="github">
  <diagram id="AT_RJWAcgIRyslCEVuBL" name="Page-1">
    <mxGraphModel dx="2066" dy="1129" grid="1" gridSize="10" guides="1" tooltips="1" connect="1" arrows="1" fold="1" page="1" pageScale="1" pageWidth="413" pageHeight="583" math="0" shadow="1">
      <root>
        <mxCell id="0" />
        <mxCell id="1" parent="0" />
        <mxCell id="8z6sF6bGDyCqWYpIpl7h-44" value="" style="group" vertex="1" connectable="0" parent="1">
          <mxGeometry x="121" y="42" width="559" height="478" as="geometry" />
        </mxCell>
        <mxCell id="8z6sF6bGDyCqWYpIpl7h-18" value="&lt;font style=&quot;font-size: 20px;&quot;&gt;Client&lt;/font&gt;" style="text;html=1;strokeColor=#82b366;fillColor=#d5e8d4;align=center;verticalAlign=middle;whiteSpace=wrap;rounded=0;fontSize=16;" vertex="1" parent="8z6sF6bGDyCqWYpIpl7h-44">
          <mxGeometry width="559" height="94.1941176470588" as="geometry" />
        </mxCell>
        <mxCell id="8z6sF6bGDyCqWYpIpl7h-19" value="&lt;font style=&quot;font-size: 20px;&quot;&gt;Galera&amp;nbsp; synchronous replication&lt;/font&gt;" style="text;html=1;strokeColor=#001DBC;fillColor=#0050ef;align=center;verticalAlign=middle;whiteSpace=wrap;rounded=0;fontSize=16;fontColor=#ffffff;" vertex="1" parent="8z6sF6bGDyCqWYpIpl7h-44">
          <mxGeometry y="337.4117647058823" width="559" height="140.58823529411762" as="geometry" />
        </mxCell>
        <mxCell id="8z6sF6bGDyCqWYpIpl7h-21" value="&lt;span style=&quot;font-size: 16px;&quot;&gt;wsrep&lt;/span&gt;" style="shape=cylinder3;whiteSpace=wrap;html=1;boundedLbl=1;backgroundOutline=1;size=15;fillColor=#e3c800;strokeColor=#B09500;fontColor=#000000;" vertex="1" parent="8z6sF6bGDyCqWYpIpl7h-44">
          <mxGeometry x="34.9375" y="243.21764705882353" width="116.45833333333334" height="112.47058823529412" as="geometry" />
        </mxCell>
        <mxCell id="8z6sF6bGDyCqWYpIpl7h-20" value="&lt;font style=&quot;font-size: 20px;&quot;&gt;MariaDB&lt;/font&gt;" style="shape=cylinder3;whiteSpace=wrap;html=1;boundedLbl=1;backgroundOutline=1;size=15;fillColor=#f5f5f5;strokeColor=#666666;gradientColor=#b3b3b3;" vertex="1" parent="8z6sF6bGDyCqWYpIpl7h-44">
          <mxGeometry x="34.9375" y="171.51764705882354" width="116.45833333333334" height="112.47058823529412" as="geometry" />
        </mxCell>
        <mxCell id="8z6sF6bGDyCqWYpIpl7h-24" value="&lt;span style=&quot;font-size: 16px;&quot;&gt;wsrep&lt;/span&gt;" style="shape=cylinder3;whiteSpace=wrap;html=1;boundedLbl=1;backgroundOutline=1;size=15;fillColor=#e3c800;strokeColor=#B09500;fontColor=#000000;" vertex="1" parent="8z6sF6bGDyCqWYpIpl7h-44">
          <mxGeometry x="232.91666666666669" y="244.6235294117647" width="116.45833333333334" height="112.47058823529412" as="geometry" />
        </mxCell>
        <mxCell id="8z6sF6bGDyCqWYpIpl7h-25" value="&lt;font style=&quot;font-size: 20px;&quot;&gt;MariaDB&lt;/font&gt;" style="shape=cylinder3;whiteSpace=wrap;html=1;boundedLbl=1;backgroundOutline=1;size=15;fillColor=#f5f5f5;strokeColor=#666666;gradientColor=#b3b3b3;" vertex="1" parent="8z6sF6bGDyCqWYpIpl7h-44">
          <mxGeometry x="232.91666666666669" y="172.9235294117647" width="116.45833333333334" height="112.47058823529412" as="geometry" />
        </mxCell>
        <mxCell id="8z6sF6bGDyCqWYpIpl7h-26" value="&lt;span style=&quot;font-size: 16px;&quot;&gt;wsrep&lt;/span&gt;" style="shape=cylinder3;whiteSpace=wrap;html=1;boundedLbl=1;backgroundOutline=1;size=15;fillColor=#e3c800;strokeColor=#B09500;fontColor=#000000;" vertex="1" parent="8z6sF6bGDyCqWYpIpl7h-44">
          <mxGeometry x="420.4145833333334" y="244.6235294117647" width="116.45833333333334" height="112.47058823529412" as="geometry" />
        </mxCell>
        <mxCell id="8z6sF6bGDyCqWYpIpl7h-27" value="&lt;font style=&quot;font-size: 20px;&quot;&gt;MariaDB&lt;/font&gt;" style="shape=cylinder3;whiteSpace=wrap;html=1;boundedLbl=1;backgroundOutline=1;size=15;fillColor=#f5f5f5;strokeColor=#666666;gradientColor=#b3b3b3;" vertex="1" parent="8z6sF6bGDyCqWYpIpl7h-44">
          <mxGeometry x="420.4145833333334" y="172.9235294117647" width="116.45833333333334" height="112.47058823529412" as="geometry" />
        </mxCell>
        <mxCell id="8z6sF6bGDyCqWYpIpl7h-38" value="" style="endArrow=classic;startArrow=classic;html=1;rounded=0;fontSize=16;strokeColor=#0056EA;strokeWidth=2;fillColor=#0050ef;shadow=1;" edge="1" parent="8z6sF6bGDyCqWYpIpl7h-44">
          <mxGeometry width="50" height="50" relative="1" as="geometry">
            <mxPoint x="73.36875" y="171.51764705882354" as="sourcePoint" />
            <mxPoint x="73.36875" y="99.81764705882352" as="targetPoint" />
          </mxGeometry>
        </mxCell>
        <mxCell id="8z6sF6bGDyCqWYpIpl7h-39" value="" style="endArrow=classic;startArrow=classic;html=1;rounded=0;fontSize=16;strokeColor=#0056EA;strokeWidth=2;fillColor=#0050ef;shadow=1;" edge="1" parent="8z6sF6bGDyCqWYpIpl7h-44">
          <mxGeometry width="50" height="50" relative="1" as="geometry">
            <mxPoint x="105.97708333333334" y="171.51764705882354" as="sourcePoint" />
            <mxPoint x="105.97708333333334" y="99.81764705882352" as="targetPoint" />
          </mxGeometry>
        </mxCell>
        <mxCell id="8z6sF6bGDyCqWYpIpl7h-40" value="" style="endArrow=classic;startArrow=classic;html=1;rounded=0;fontSize=16;strokeColor=#0056EA;strokeWidth=2;fillColor=#0050ef;shadow=1;" edge="1" parent="8z6sF6bGDyCqWYpIpl7h-44">
          <mxGeometry width="50" height="50" relative="1" as="geometry">
            <mxPoint x="270.18333333333334" y="170.11176470588236" as="sourcePoint" />
            <mxPoint x="270.18333333333334" y="98.41176470588235" as="targetPoint" />
          </mxGeometry>
        </mxCell>
        <mxCell id="8z6sF6bGDyCqWYpIpl7h-41" value="" style="endArrow=classic;startArrow=classic;html=1;rounded=0;fontSize=16;strokeColor=#0056EA;strokeWidth=2;fillColor=#0050ef;shadow=1;" edge="1" parent="8z6sF6bGDyCqWYpIpl7h-44">
          <mxGeometry width="50" height="50" relative="1" as="geometry">
            <mxPoint x="302.7916666666667" y="170.11176470588236" as="sourcePoint" />
            <mxPoint x="302.7916666666667" y="98.41176470588235" as="targetPoint" />
          </mxGeometry>
        </mxCell>
        <mxCell id="8z6sF6bGDyCqWYpIpl7h-42" value="" style="endArrow=classic;startArrow=classic;html=1;rounded=0;fontSize=16;strokeColor=#0056EA;strokeWidth=2;fillColor=#0050ef;shadow=1;" edge="1" parent="8z6sF6bGDyCqWYpIpl7h-44">
          <mxGeometry width="50" height="50" relative="1" as="geometry">
            <mxPoint x="466.9979166666667" y="170.11176470588236" as="sourcePoint" />
            <mxPoint x="466.9979166666667" y="98.41176470588235" as="targetPoint" />
          </mxGeometry>
        </mxCell>
        <mxCell id="8z6sF6bGDyCqWYpIpl7h-43" value="" style="endArrow=classic;startArrow=classic;html=1;rounded=0;fontSize=16;strokeColor=#0056EA;strokeWidth=2;fillColor=#0050ef;shadow=1;" edge="1" parent="8z6sF6bGDyCqWYpIpl7h-44">
          <mxGeometry width="50" height="50" relative="1" as="geometry">
            <mxPoint x="499.60625000000005" y="170.11176470588236" as="sourcePoint" />
            <mxPoint x="499.60625000000005" y="98.41176470588235" as="targetPoint" />
          </mxGeometry>
        </mxCell>
      </root>
    </mxGraphModel>
  </diagram>
</mxfile>
